<svg width="300" height="300" viewBox="0 0 300 300" fill="none" xmlns="http://www.w3.org/2000/svg">
<rect width="300" height="300" rx="150" fill="#252525"/>
<ellipse cx="105.688" cy="168.927" rx="34.5021" ry="37.0113" fill="#2EC1D6"/>
<ellipse cx="105.688" cy="168.927" rx="34.5021" ry="37.0113" fill="#2EC1D6"/>
<ellipse cx="105.688" cy="168.927" rx="34.5021" ry="37.0113" fill="#2EC1D6"/>
<ellipse cx="148.309" cy="158.041" rx="44.6497" ry="47.897" fill="#2EC1D6"/>
<ellipse cx="148.309" cy="158.041" rx="44.6497" ry="47.897" fill="#2EC1D6"/>
<ellipse cx="148.309" cy="158.041" rx="44.6497" ry="47.897" fill="#2EC1D6"/>
<ellipse cx="189.914" cy="172.918" rx="30.7813" ry="33.0199" fill="#2EC1D6"/>
<ellipse cx="189.914" cy="172.918" rx="30.7813" ry="33.0199" fill="#2EC1D6"/>
<ellipse cx="189.914" cy="172.918" rx="30.7813" ry="33.0199" fill="#2EC1D6"/>
<ellipse cx="113.807" cy="151.51" rx="34.5021" ry="37.0113" fill="#C9E7EB"/>
<ellipse cx="113.807" cy="151.51" rx="34.5021" ry="37.0113" fill="#C9E7EB"/>
<ellipse cx="113.807" cy="151.51" rx="34.5021" ry="37.0113" fill="#C9E7EB"/>
<ellipse cx="156.427" cy="140.624" rx="44.6497" ry="47.897" fill="#C9E7EB"/>
<ellipse cx="156.427" cy="140.624" rx="44.6497" ry="47.897" fill="#C9E7EB"/>
<ellipse cx="156.427" cy="140.624" rx="44.6497" ry="47.897" fill="#C9E7EB"/>
<ellipse cx="198.032" cy="155.502" rx="30.7813" ry="33.0199" fill="#C9E7EB"/>
<ellipse cx="198.032" cy="155.502" rx="30.7813" ry="33.0199" fill="#C9E7EB"/>
<ellipse cx="198.032" cy="155.502" rx="30.7813" ry="33.0199" fill="#C9E7EB"/>
</svg>
