<svg width="188" height="40" viewBox="0 0 188 40" fill="none" xmlns="http://www.w3.org/2000/svg">
<path d="M0 18.1818C0 8.14028 8.14028 0 18.1818 0H37.4545C40.467 0 42.9091 2.44208 42.9091 5.45455V34.5455C42.9091 37.5579 40.467 40 37.4545 40H5.45455C2.44209 40 0 37.5579 0 34.5455V18.1818Z" fill="#252525"/>
<circle cx="15.1167" cy="22.5236" r="4.93484" fill="#2EC1D6"/>
<circle cx="15.1167" cy="22.5236" r="4.93484" fill="#2EC1D6"/>
<circle cx="15.1167" cy="22.5236" r="4.93484" fill="#2EC1D6"/>
<circle cx="21.2127" cy="21.0722" r="6.38627" fill="#2EC1D6"/>
<circle cx="21.2127" cy="21.0722" r="6.38627" fill="#2EC1D6"/>
<circle cx="21.2127" cy="21.0722" r="6.38627" fill="#2EC1D6"/>
<circle cx="27.1635" cy="23.0558" r="4.40265" fill="#2EC1D6"/>
<circle cx="27.1635" cy="23.0558" r="4.40265" fill="#2EC1D6"/>
<circle cx="27.1635" cy="23.0558" r="4.40265" fill="#2EC1D6"/>
<circle cx="16.2777" cy="20.2013" r="4.93484" fill="#C9E7EB"/>
<circle cx="16.2777" cy="20.2013" r="4.93484" fill="#C9E7EB"/>
<circle cx="16.2777" cy="20.2013" r="4.93484" fill="#C9E7EB"/>
<circle cx="22.3737" cy="18.7499" r="6.38627" fill="#C9E7EB"/>
<circle cx="22.3737" cy="18.7499" r="6.38627" fill="#C9E7EB"/>
<circle cx="22.3737" cy="18.7499" r="6.38627" fill="#C9E7EB"/>
<circle cx="28.3246" cy="20.7335" r="4.40265" fill="#C9E7EB"/>
<circle cx="28.3246" cy="20.7335" r="4.40265" fill="#C9E7EB"/>
<circle cx="28.3246" cy="20.7335" r="4.40265" fill="#C9E7EB"/>
<path d="M57.9331 15.9091C59.249 15.9091 60.3861 16.2738 61.3444 17.0033C62.1024 16.0593 63.0893 15.5873 64.3051 15.5873C65.9499 15.5873 67.2015 16.1236 68.0596 17.1964C68.9178 18.2548 69.3469 19.6136 69.3469 21.2727C69.3469 22.9176 68.8821 24.2764 67.9524 25.3491C67.037 26.4218 65.7497 26.9582 64.0906 26.9582C62.8605 26.9582 61.8807 26.4075 61.1513 25.3062V32H57.9331V16.7673C57.2895 16.7673 56.7173 16.8745 56.2167 17.0891L55.9164 16.2953C56.5314 16.0378 57.2036 15.9091 57.9331 15.9091ZM65.4207 24.5338C65.8212 23.7329 66.0215 22.6458 66.0215 21.2727C66.0215 19.8996 65.8212 18.8126 65.4207 18.0116C65.0203 17.2107 64.4052 16.8102 63.5756 16.8102C62.7604 16.8102 62.131 17.2178 61.6876 18.0331C61.2586 18.8341 61.044 19.9139 61.044 21.2727C61.044 22.6315 61.2586 23.7185 61.6876 24.5338C62.131 25.3348 62.7604 25.7353 63.5756 25.7353C64.4052 25.7353 65.0203 25.3348 65.4207 24.5338ZM77.6864 21.6804C78.6161 21.5945 79.3312 21.2441 79.8318 20.6291C80.3467 19.9998 80.6042 19.3704 80.6042 18.7411C80.6042 18.0975 80.4612 17.604 80.1751 17.2607C79.9033 16.9175 79.4814 16.7458 78.9093 16.7458C78.3515 16.7458 77.8151 17.1463 77.3002 17.9473C76.7853 18.7482 76.5278 19.821 76.5278 21.1655C76.5278 22.5099 76.771 23.5898 77.2573 24.4051C77.7436 25.2204 78.4373 25.628 79.3384 25.628C80.7115 25.628 81.8772 25.0916 82.8355 24.0189L83.4362 24.4051C82.9499 25.1775 82.3062 25.7996 81.5053 26.2716C80.7043 26.7293 79.8032 26.9582 78.802 26.9582C77.0999 26.9582 75.7412 26.4004 74.7256 25.2847C73.7101 24.1548 73.2024 22.796 73.2024 21.2084C73.2024 19.6207 73.7387 18.2905 74.8115 17.2178C75.8985 16.1308 77.4003 15.5873 79.3169 15.5873C80.5756 15.5873 81.5625 15.8805 82.2776 16.4669C82.9928 17.0533 83.3504 17.7971 83.3504 18.6982C83.3504 19.5993 82.9499 20.436 82.1489 21.2084C81.3622 21.9664 80.3181 22.3455 79.0166 22.3455C78.5732 22.3455 78.1441 22.2954 77.7293 22.1953L77.6864 21.6804ZM94.1137 15.5873C94.5428 15.5873 94.7573 15.9949 94.7573 16.8102V24.2549C94.7573 24.6411 94.8503 24.9486 95.0362 25.1775C95.2222 25.392 95.5082 25.4993 95.8944 25.4993C96.2806 25.4993 96.724 25.2919 97.2246 24.8771L97.6108 25.392C96.4665 26.4361 95.3223 26.9582 94.178 26.9582C92.4188 26.9582 91.5391 25.9069 91.5391 23.8044V17.7756C90.8669 18.0474 90.0516 18.2333 89.0933 18.3335C88.9789 19.6493 88.5999 20.9652 87.9562 22.2811L87.0766 22.0236C87.4771 21.0081 87.6916 19.7995 87.7202 18.3978C87.1767 18.3978 86.7333 18.2405 86.39 17.9258C86.0611 17.6112 85.8966 17.225 85.8966 16.7673C85.8966 16.2953 86.0539 15.9019 86.3686 15.5873C86.6976 15.2583 87.0909 15.0938 87.5486 15.0938C88.0206 15.0938 88.4139 15.2583 88.7286 15.5873C89.0433 15.9162 89.2006 16.3382 89.2006 16.8531H89.6082C90.7382 16.8531 91.9396 16.5384 93.2126 15.9091C93.6274 15.6945 93.9277 15.5873 94.1137 15.5873ZM102.012 17.6684C101.669 17.1392 101.497 16.6672 101.497 16.2524C101.497 15.8376 101.654 15.4729 101.969 15.1582C102.298 14.8292 102.691 14.6647 103.149 14.6647C103.607 14.6647 103.993 14.8292 104.307 15.1582C104.636 15.4729 104.801 15.8519 104.801 16.2953C104.801 16.7387 104.579 17.2107 104.136 17.7113C105.309 18.5695 106.21 19.4133 106.839 20.2429C107.468 21.0582 107.783 22.0093 107.783 23.0964C107.783 24.1691 107.375 25.0845 106.56 25.8425C105.745 26.5863 104.586 26.9582 103.085 26.9582C102.398 26.9582 101.704 26.808 101.003 26.5076C100.317 26.2073 99.7948 25.8354 99.4373 25.392L99.9307 24.8771C100.56 25.3777 101.239 25.628 101.969 25.628C102.698 25.628 103.292 25.4349 103.75 25.0487C104.222 24.6482 104.458 24.0332 104.458 23.2036C104.458 21.8878 103.971 20.5147 102.999 19.0844L99.7591 23.1393L99.2227 22.6673C100.31 20.908 101.239 19.2417 102.012 17.6684ZM113.246 17.6684C112.903 17.1392 112.731 16.6672 112.731 16.2524C112.731 15.8376 112.889 15.4729 113.203 15.1582C113.532 14.8292 113.926 14.6647 114.383 14.6647C114.841 14.6647 115.227 14.8292 115.542 15.1582C115.871 15.4729 116.035 15.8519 116.035 16.2953C116.035 16.7387 115.814 17.2107 115.37 17.7113C116.543 18.5695 117.444 19.4133 118.073 20.2429C118.703 21.0582 119.017 22.0093 119.017 23.0964C119.017 24.1691 118.61 25.0845 117.794 25.8425C116.979 26.5863 115.821 26.9582 114.319 26.9582C113.632 26.9582 112.939 26.808 112.238 26.5076C111.551 26.2073 111.029 25.8354 110.672 25.392L111.165 24.8771C111.794 25.3777 112.474 25.628 113.203 25.628C113.933 25.628 114.526 25.4349 114.984 25.0487C115.456 24.6482 115.692 24.0332 115.692 23.2036C115.692 21.8878 115.206 20.5147 114.233 19.0844L110.993 23.1393L110.457 22.6673C111.544 20.908 112.474 19.2417 113.246 17.6684ZM124.48 17.6684C124.137 17.1392 123.966 16.6672 123.966 16.2524C123.966 15.8376 124.123 15.4729 124.438 15.1582C124.766 14.8292 125.16 14.6647 125.618 14.6647C126.075 14.6647 126.461 14.8292 126.776 15.1582C127.105 15.4729 127.27 15.8519 127.27 16.2953C127.27 16.7387 127.048 17.2107 126.604 17.7113C127.777 18.5695 128.678 19.4133 129.308 20.2429C129.937 21.0582 130.252 22.0093 130.252 23.0964C130.252 24.1691 129.844 25.0845 129.029 25.8425C128.214 26.5863 127.055 26.9582 125.553 26.9582C124.867 26.9582 124.173 26.808 123.472 26.5076C122.786 26.2073 122.263 25.8354 121.906 25.392L122.399 24.8771C123.029 25.3777 123.708 25.628 124.438 25.628C125.167 25.628 125.761 25.4349 126.218 25.0487C126.69 24.6482 126.926 24.0332 126.926 23.2036C126.926 21.8878 126.44 20.5147 125.467 19.0844L122.228 23.1393L121.691 22.6673C122.778 20.908 123.708 19.2417 124.48 17.6684ZM135.264 13.4847C134.935 13.1415 134.771 12.7338 134.771 12.2618C134.771 11.7898 134.935 11.3893 135.264 11.0604C135.607 10.7171 136.015 10.5455 136.487 10.5455C136.959 10.5455 137.36 10.7171 137.689 11.0604C138.032 11.3893 138.203 11.7898 138.203 12.2618C138.203 12.7338 138.032 13.1415 137.689 13.4847C137.36 13.8137 136.959 13.9782 136.487 13.9782C136.015 13.9782 135.607 13.8137 135.264 13.4847ZM136.079 15.5873C137.424 15.5873 138.096 16.1665 138.096 17.3251V24.2549C138.096 24.6411 138.189 24.9486 138.375 25.1775C138.561 25.392 138.847 25.4993 139.233 25.4993C139.619 25.4993 140.063 25.2919 140.563 24.8771L140.95 25.392C139.805 26.4361 138.661 26.9582 137.517 26.9582C135.758 26.9582 134.878 25.9069 134.878 23.8044V16.6171C134.091 16.8173 133.491 17.1678 133.076 17.6684L132.497 17.0033C132.911 16.5742 133.433 16.2309 134.063 15.9735C134.706 15.716 135.379 15.5873 136.079 15.5873ZM145.357 17.6684C145.013 17.1392 144.842 16.6672 144.842 16.2524C144.842 15.8376 144.999 15.4729 145.314 15.1582C145.643 14.8292 146.036 14.6647 146.494 14.6647C146.951 14.6647 147.338 14.8292 147.652 15.1582C147.981 15.4729 148.146 15.8519 148.146 16.2953C148.146 16.7387 147.924 17.2107 147.481 17.7113C148.654 18.5695 149.555 19.4133 150.184 20.2429C150.813 21.0582 151.128 22.0093 151.128 23.0964C151.128 24.1691 150.72 25.0845 149.905 25.8425C149.09 26.5863 147.931 26.9582 146.429 26.9582C145.743 26.9582 145.049 26.808 144.348 26.5076C143.662 26.2073 143.14 25.8354 142.782 25.392L143.276 24.8771C143.905 25.3777 144.584 25.628 145.314 25.628C146.043 25.628 146.637 25.4349 147.095 25.0487C147.567 24.6482 147.803 24.0332 147.803 23.2036C147.803 21.8878 147.316 20.5147 146.344 19.0844L143.104 23.1393L142.568 22.6673C143.655 20.908 144.584 19.2417 145.357 17.6684ZM153.673 17.0891V16.2095H155.432V13.12H158.651V16.2095H161.075V17.0891H158.651V24.2549C158.651 24.6411 158.744 24.9486 158.93 25.1775C159.115 25.392 159.402 25.4993 159.788 25.4993C160.174 25.4993 160.617 25.2919 161.118 24.8771L161.504 25.392C160.36 26.4361 159.216 26.9582 158.071 26.9582C156.312 26.9582 155.432 25.9069 155.432 23.8044V17.0891H153.673Z" fill="#372B2B"/>
</svg>